<?xml version="1.0" encoding="UTF-8"?>
<svg width="236px" height="60px" viewBox="0 0 236 60" version="1.1" xmlns="http://www.w3.org/2000/svg" xmlns:xlink="http://www.w3.org/1999/xlink">
    <title>F9906554-8FE6-4FB4-88F1-A98A9AB00377</title>
    <g id="DESKTOP" stroke="none" stroke-width="1" fill="none" fill-rule="evenodd">
        <g id="home_2_enervit" transform="translate(-602.000000, -4788.000000)" fill="#FFFFFF" fill-rule="nonzero">
            <g id="footer_dsk" transform="translate(0.000000, 4759.238892)">
                <g id="logo_enervit" transform="translate(602.000000, 29.000000)">
                    <path d="M120.790069,11.4980577 L120.837537,11.4980577 L120.837537,11.4980577 C120.867745,11.3788186 120.897952,11.2808721 120.923844,11.1829257 C120.979943,10.9827744 121.031727,10.8081742 121.083511,10.5739545 C121.403394,9.04162261 121.01244,7.44840181 120.017627,6.23024385 C118.979185,5.06189714 117.46629,4.41222827 115.89218,4.45869126 L103.438166,4.45869126 C102.395217,4.47559895 101.38978,4.84542163 100.590054,5.50629207 C99.7646964,6.15518286 99.1767563,7.05240556 98.9157098,8.06141599 L89.9959425,36.0357645 C89.833013,36.3689646 89.7126995,36.7208645 89.6377709,37.0833653 C89.44879,38.0552281 89.7064293,39.0597469 90.3411681,39.825865 C90.9713895,40.5465323 91.8924806,40.9550238 92.8569999,40.9419231 C93.8529404,40.9211451 94.8161468,40.5868919 95.605859,39.9876895 C96.3951224,39.4048092 96.9852874,38.5980667 97.2974646,37.6753023 L97.3492485,37.6753023 L105.595826,11.8302238 L111.71495,11.8302238 C111.916333,11.8273763 112.110526,11.9040313 112.254365,12.0431508 C112.428177,12.2177548 112.52311,12.4542664 112.5176,12.6989659 L112.439924,12.9459612 L112.439924,12.9459612 L112.439924,12.9715125 L112.439924,12.9715125 L112.439924,12.9715125 L104.883798,36.6660284 L104.883798,36.6660284 L104.922636,36.6660284 C104.922636,36.7086138 104.922636,36.7469406 104.888113,36.7852675 C104.855085,36.8780251 104.830533,36.9735132 104.814753,37.0705897 C104.589792,38.0247606 104.827935,39.027895 105.458954,39.7841695 C106.089973,40.5404441 107.041889,40.9635918 108.033982,40.9288268 C110.27194,40.8339863 112.16183,39.2579102 112.629798,37.0961409 L112.629798,37.0961409 L112.629798,37.0961409 L120.790069,11.4980577 Z" id="Path"></path>
                    <path d="M83.6567368,32.892962 L72.9245349,32.892962 L74.9915734,26.4029473 L86.8975424,26.4029473 C89.135755,26.2820903 91.0140076,24.6955868 91.4804127,22.5319345 C91.6792069,21.5384793 91.4145645,20.5094768 90.7597542,19.7298153 C90.1302209,19.0223821 89.2100733,18.6341166 88.2568683,18.6736974 L77.4685673,18.6736974 L79.5830743,12.0857362 L90.6863937,12.0857362 C90.9161709,12.1358592 91.1502449,12.164377 91.3854756,12.170907 C92.487613,12.1328419 93.5419303,11.7172663 94.367362,10.99555 C95.2220904,10.2899216 95.7980055,9.31002972 95.9942378,8.22749905 C96.2009551,7.28254105 95.969974,6.295834 95.3642011,5.53610184 C94.7209778,4.78566001 93.7709015,4.35906329 92.7750088,4.37316452 L77.5980269,4.37316452 C76.6086082,4.40505575 75.6543801,4.74328304 74.8707444,5.34020901 C74.0811368,5.92013228 73.4870928,6.72155748 73.1661929,7.63982055 L73.1100937,7.63982055 L63.9184612,36.3381208 L63.9184612,36.3381208 L63.9616144,36.3381208 C63.952682,36.3785497 63.9411512,36.4183766 63.9270919,36.4573599 C63.8946545,36.5506133 63.8687023,36.6459421 63.8494161,36.7426821 C63.6508852,37.7101107 63.9009701,38.7144697 64.5312367,39.4809232 C65.1661562,40.2085823 66.0957192,40.6204456 67.0686451,40.6051778 L82.2413117,40.6051778 C84.5003585,40.5413293 86.4111479,38.937201 86.8371279,36.7469406 C87.063876,35.7811101 86.8301625,34.7659877 86.2027758,33.9916653 C85.5658343,33.2647155 84.6300198,32.8608794 83.6567368,32.892962 L83.6567368,32.892962 Z" id="Path"></path>
                    <path d="M136.415844,32.892962 L125.627543,32.892962 L127.703212,26.4029473 L139.617812,26.4029473 C141.859417,26.2949573 143.746292,24.7109053 144.213628,22.5447101 C144.42034,21.5537656 144.161776,20.5237251 143.510231,19.7425909 C142.875339,19.0324463 141.948776,18.6441519 140.990084,18.686473 L130.201783,18.686473 L132.320605,12.0985118 L144.200682,12.0985118 C146.445822,12.0323258 148.336633,10.4222932 148.731769,8.24027467 C148.938385,7.28869507 148.70073,6.29585897 148.084471,5.53610184 C147.442006,4.78467188 146.491428,4.35784994 145.495278,4.37352046 L130.318296,4.37352046 C128.073156,4.47266893 126.181539,6.06070161 125.72248,8.23175759 L125.72248,8.23175759 L116.940803,35.6780471 C116.775057,36.018345 116.651885,36.3772803 116.574001,36.7469406 C116.385777,37.7167813 116.641679,38.7191243 117.273083,39.4851818 C117.905081,40.2093882 118.829123,40.6209047 119.797545,40.6096698 L135.065149,40.6096698 C137.296808,40.4877559 139.170103,38.9076863 139.639388,36.7511992 C139.837452,35.7590935 139.572819,34.7316892 138.91873,33.9533385 C138.288524,33.2463597 137.369291,32.8569159 136.415844,32.892962 L136.415844,32.892962 Z" id="Path"></path>
                    <path d="M207.661784,4.28834966 L207.614316,4.28834966 C206.643112,4.30024069 205.701164,4.61804976 204.925871,5.19541865 C204.138209,5.76818409 203.544108,6.56226397 203.221319,7.47373749 L203.16522,7.47373749 L193.87002,36.7469406 L193.87002,36.7469406 L193.908858,36.7469406 C193.899341,36.7858222 193.887818,36.824199 193.874335,36.8619212 C193.841888,36.9566185 193.815937,37.0533642 193.79666,37.1515019 C193.590223,38.1164205 193.834226,39.1218066 194.461219,39.8897431 C195.099936,40.6241086 196.039873,41.0354929 197.020204,41.0097391 C199.102151,40.9276407 200.900745,39.5480919 201.495191,37.5773559 L201.538344,37.5773559 L210.514211,9.14734366 C210.672974,8.82218296 210.790378,8.47889445 210.863752,8.12529409 C211.052652,7.14676867 210.791841,6.13597083 210.151724,5.36576025 C209.52476,4.65994871 208.612615,4.26525868 207.661784,4.28834966 Z" id="Path"></path>
                    <path d="M235.288465,5.53610184 C234.645693,4.78456526 233.695745,4.35646374 232.699273,4.36898293 L217.539553,4.36898293 C216.442992,4.40789059 215.393856,4.82021751 214.570612,5.53610184 C213.71779,6.24530691 213.138673,7.22286749 212.93079,8.30415277 C212.720355,9.2576793 212.964442,10.2537848 213.593116,11.0070707 C214.22179,11.7603566 215.165675,12.1876954 216.154335,12.1666484 C216.405206,12.1595227 216.654984,12.1310265 216.900885,12.0814776 L219.343357,12.0814776 L211.528311,36.5808576 L211.528311,36.5808576 L211.571464,36.5808576 C211.571464,36.6149259 211.571464,36.6532528 211.536942,36.6915796 C211.503996,36.7875768 211.478038,36.8857729 211.459266,36.9854189 C211.245795,37.9591143 211.491845,38.9757942 212.128141,39.7492112 C212.749985,40.4804488 213.672426,40.8964982 214.639657,40.8819829 L214.713018,40.8819829 C216.954864,40.794367 218.841446,39.1970626 219.269996,37.0237457 C219.272092,37.0139167 219.272092,37.0037649 219.269996,36.9939359 L219.269996,36.9683847 L227.240393,12.0857362 L230.614973,12.0857362 C230.847619,12.1361408 231.084584,12.1646588 231.322686,12.170907 C233.5732,12.0852995 235.472126,10.4911308 235.918502,8.31266985 C236.13864,7.34073871 235.907605,6.32256948 235.288465,5.53610184 Z" id="Path"></path>
                    <path d="M168.802324,4.36926192 L156.257687,4.36926192 C154.017836,4.48161829 152.133293,6.06371199 151.661871,8.22749905 L151.661871,8.22749905 L142.599698,36.576599 L142.599698,36.576599 L142.634221,36.576599 C142.634221,36.6106674 142.634221,36.6489942 142.604014,36.6873211 C142.572529,36.7834265 142.548014,36.8816208 142.530653,36.9811603 C142.275575,37.9443723 142.502049,38.9698818 143.140138,39.741003 C143.778227,40.5121242 144.751169,40.9360925 145.758513,40.8819829 L145.758513,40.8819829 C146.77048,40.8612985 147.7461,40.5058788 148.528949,39.8727089 C149.343059,39.2420659 149.938662,38.3775289 150.2335,37.3984972 L155.105497,22.1060805 C155.105497,22.1699586 155.079605,22.2338367 155.070974,22.3019734 C154.860579,23.2364729 155.078467,24.2149766 155.666489,24.9763364 C156.267607,25.7025821 157.163145,26.1296525 158.113275,26.1431763 L158.113275,26.1431763 L159.908448,26.1431763 C160.127418,26.1343112 160.340182,26.2161356 160.495332,26.3688789 C160.665133,26.5458654 160.749965,26.7861598 160.728359,27.0289526 L157.707635,36.5851161 L157.707635,36.5851161 L157.746473,36.5851161 C157.736956,36.6239977 157.725433,36.6623745 157.71195,36.7000967 C157.678975,36.7946366 157.653015,36.8914191 157.634275,36.9896774 C157.431108,37.9605382 157.679748,38.9701441 158.31178,39.7406942 C158.947392,40.4654531 159.878209,40.8716232 160.849188,40.8479145 L160.849188,40.8479145 C161.912104,40.8287032 162.935398,40.4464426 163.744768,39.7662454 C164.580437,39.0985483 165.161639,38.1706512 165.393221,37.1344678 L168.176602,28.2170852 L168.176602,28.2170852 L168.176602,28.2170852 C168.273854,27.9732319 168.347542,27.7208567 168.396684,27.4633237 C168.607374,26.4123311 168.4298,25.3216278 167.896107,24.3886579 C167.388902,23.5463411 166.585676,22.9173684 165.639194,22.6213638 C166.913653,22.5947956 168.146064,22.1665158 169.15618,21.3991629 C170.197727,20.6275346 170.98088,19.5654247 171.404462,18.3500483 L173.635483,11.4128869 L173.657059,11.4128869 L173.657059,11.4128869 C173.761187,11.1171305 173.84198,10.8138699 173.898717,10.5058179 C174.225345,8.98268126 173.843775,7.39523587 172.858725,6.17914137 C171.847614,5.00925371 170.360255,4.34562606 168.802324,4.36926192 L168.802324,4.36926192 Z M158.415348,11.7493115 L164.521526,11.7493115 C164.749021,11.7535777 164.964957,11.8490409 165.119628,12.013727 C165.274299,12.1784131 165.354379,12.3981335 165.341437,12.6223122 L165.229239,12.975771 L165.229239,12.975771 L165.229239,12.975771 L165.229239,12.975771 L165.229239,12.975771 L163.710246,17.7155259 C163.516298,18.1154827 163.114811,18.3774362 162.665938,18.3968923 L159.597745,18.3968923 L159.597745,18.3968923 C158.508695,18.4447899 157.470794,18.8665377 156.663328,19.5892835 C156.103075,20.05994 155.660109,20.6515324 155.368731,21.3182506 L158.415348,11.7493115 Z" id="Shape"></path>
                    <path d="M199.889892,9.30916818 L199.838108,9.28787548 C200.060913,8.87922959 200.215376,8.43775488 200.295532,7.98050374 C200.50977,7.03545419 200.28155,6.04543862 199.674126,5.28484799 C199.031732,4.53281929 198.081535,4.10460533 197.084934,4.11800806 C195.128457,4.21955266 193.412592,5.43998519 192.696253,7.2395178 L183.254332,22.9961154 L184.548928,8.22324051 C184.558467,8.18716014 184.569992,8.1516196 184.583451,8.11677701 C184.60237,8.06556814 184.616807,8.01285323 184.626604,7.95921104 C184.807382,6.99025342 184.546964,5.99188142 183.914576,5.22948697 C183.287045,4.50617451 182.367921,4.09317937 181.403059,4.10086553 C179.137344,4.19074334 177.216881,5.77473377 176.725252,7.95921104 C176.677675,8.26064513 176.667531,8.56668055 176.695045,8.87053857 L174.921448,37.1259507 C174.754123,38.0892365 175.02746,39.076206 175.667999,39.8216064 C176.286434,40.4928364 177.169871,40.8658043 178.088893,40.843656 L178.218353,40.843656 C178.978426,40.8372881 179.723104,40.6315217 180.376013,40.2474604 C181.059472,39.8559056 181.639178,39.3100957 182.067619,38.6547665 L182.102141,38.6547665 L199.894207,9.27084132 L199.889892,9.30916818 Z" id="Path"></path>
                    <path d="M228.055988,15.7565976 C227.938925,16.2042267 228.048226,16.6800902 228.34943,17.0341595 C228.613242,17.3552764 229.013864,17.536413 229.432576,17.5238916 C230.471715,17.5100879 231.353246,16.7672451 231.529821,15.7565976 C231.624974,15.341715 231.514422,14.9069073 231.232064,14.5854991 C230.963484,14.2219363 230.520915,14.0245923 230.066928,14.0659572 C229.584659,14.0646345 229.120636,14.2478012 228.772332,14.576982 C228.41412,14.8863369 228.163526,15.2989959 228.055988,15.7565976 L228.055988,15.7565976 Z M230.97746,17.242828 C230.541245,17.6262556 229.968225,17.8224114 229.385107,17.7879211 C228.86855,17.8079645 228.373823,17.5812918 228.055988,17.1789499 C227.749731,16.7743447 227.633508,16.2597718 227.736655,15.7651146 C227.856513,15.2421808 228.131426,14.7663027 228.526358,14.3981233 C228.955395,14.0025367 229.518646,13.7792896 230.105766,13.772118 C230.616325,13.7421652 231.111561,13.9502653 231.443515,14.3342452 C231.785916,14.7484413 231.922112,15.2923066 231.814633,15.8162171 C231.729492,16.3794858 231.430142,16.8896033 230.97746,17.242828 L230.97746,17.242828 Z M230.308586,15.002836 C230.154145,14.9353447 229.984912,14.9075103 229.816639,14.9219237 L229.480044,14.9219237 L229.329008,15.7736317 L229.76054,15.7736317 C229.881604,15.7827004 230.003295,15.7682318 230.118712,15.7310463 C230.287555,15.6613198 230.407076,15.5094408 230.43373,15.3307436 C230.456585,15.2070802 230.414343,15.0804158 230.321532,14.9943189 L230.308586,15.002836 Z M229.902946,14.6664113 C230.113338,14.6622603 230.323069,14.6910064 230.524352,14.7515821 C230.721909,14.8767966 230.823987,15.1068079 230.783271,15.3350021 C230.761902,15.5010419 230.664994,15.6484107 230.520036,15.7353049 C230.409016,15.7969894 230.284835,15.832003 230.157549,15.8375098 C230.288059,15.8751592 230.39915,15.9604264 230.468253,16.075988 C230.535501,16.1799985 230.56865,16.3019273 230.56319,16.4251883 L230.56319,16.5870128 C230.56319,16.6338568 230.56319,16.6721836 230.532982,16.761613 C230.528486,16.7897065 230.519759,16.8169787 230.50709,16.8425252 C230.50709,16.8425252 230.144604,16.8425252 230.161865,16.8425252 L230.161865,16.7488374 L230.183441,16.5912714 C230.183441,16.335759 230.161865,16.1654174 230.019459,16.0887637 C229.893652,16.0231245 229.751216,15.995012 229.609504,16.0078514 L229.272909,16.0078514 L229.121873,16.8595594 L228.785278,16.8595594 L229.173656,14.6834455 L229.894315,14.6834455 L229.902946,14.6664113 Z" id="Shape"></path>
                    <path d="M26.798075,35.4055006 C25.1641355,36.9909947 22.5403222,36.9796127 20.9205704,35.3800041 C19.3008187,33.7803956 19.2912036,31.1910985 20.899032,29.579818 L32.3346311,18.3117215 L25.1107847,18.3117215 C23.5887242,18.3600424 22.1608509,17.5863001 21.3853334,16.2929575 C20.609816,14.9996149 20.609816,13.3920705 21.3853334,12.0987279 C22.1608509,10.8053853 23.5887242,10.031643 25.1107847,10.0799639 L46.3723684,10.0799639 L46.3723684,31.0447557 C46.4213336,32.5467892 45.6372747,33.9558747 44.3266876,34.721188 C43.0161004,35.4865012 41.3871221,35.4865012 40.0765349,34.721188 C38.7659478,33.9558747 37.9818889,32.5467892 38.0308541,31.0447557 L38.0308541,24.3162627 L26.811021,35.3884664 L26.798075,35.4055006 Z" id="Path"></path>
                    <path d="M65.9164546,11.3362332 C64.8203632,7.79312798 62.1362339,4.87602816 58.204977,2.89154858 C54.4722248,1.01779103 49.6822192,0 44.3571138,0 L44.2276542,0 C38.4183409,0.061655517 32.6591463,1.06884311 27.1821385,2.98097792 C22.8863231,4.43995559 18.7856134,6.40756411 14.9697818,8.84072879 C11.5881655,10.9754754 8.52865904,13.5703672 5.88171699,16.548686 C3.62127412,19.0435218 1.88988619,21.9597366 0.789638903,25.1253853 C-0.176739398,27.8726695 -0.258136868,30.8477232 0.556611601,33.6424651 C1.64838766,37.21538 4.31094036,40.1367384 8.26808918,42.121218 C11.996526,43.9949755 16.7865317,44.9914738 22.1116371,45.008508 L22.245412,45.008508 C28.0475155,44.9449805 33.7993046,43.9378131 39.269351,42.0275301 C43.5670176,40.5729746 47.6682574,38.6051118 51.4817078,36.1677792 C54.8631445,34.0344761 57.9226551,31.4410144 60.5697726,28.4640806 C62.8384875,25.964173 64.5758864,23.0404796 65.6791119,19.8660885 C66.6473888,17.1149354 66.7302865,14.135677 65.9164546,11.3362332 Z M28.6191402,6.10674619 C32.602069,4.72098058 36.7896938,3.99433544 41.0127405,3.95618355 L41.5305789,3.95618355 C45.5395116,4.02006165 49.2075339,4.83344276 52.1462671,6.30689756 C55.5985235,8.03160621 57.9029046,10.5952472 58.8695363,13.725274 C61.6356567,22.6980176 52.5648532,33.8766848 38.6393142,38.6377323 C34.4923223,40.0776836 30.1239728,40.7980832 25.7278756,40.7670023 C21.7189429,40.7031242 18.0509206,39.8897431 15.1165027,38.4162883 C11.6642463,36.6915796 9.35554992,34.1279386 8.39323347,30.9979118 C5.60553648,22.046461 14.6979166,10.8720523 28.6191402,6.10674619 Z" id="Shape"></path>
                    <path d="M28.5673564,49.4203553 L28.4767347,50.5190586 C28.1088666,50.389581 27.7190455,50.3317326 27.3288594,50.348717 L26.137831,50.348717 L24.7224059,55.6931846 C24.6273372,56.0092433 24.5893589,56.3393437 24.6102076,56.6683902 L22.0555379,56.6683902 C22.2389561,56.3654358 22.3742986,56.0365582 22.4568627,55.6931846 L23.8722878,50.348717 L22.6942053,50.348717 C22.2745949,50.3362053 21.855861,50.3937976 21.4557084,50.5190586 L21.9390242,49.4203553 L28.5673564,49.4203553 Z" id="Path"></path>
                    <path d="M30.9278367,51.7412596 L30.9537286,51.7412596 C31.103799,51.4967839 31.3718011,51.3468067 31.6614411,51.3452153 L34.2161108,51.3452153 C35.1784273,51.3452153 35.5107069,51.7710693 35.2604184,52.7718262 L34.5440752,55.4674819 C34.4217465,55.8567524 34.3549368,56.2609357 34.3455704,56.6683902 L32.0066668,56.6683902 C32.203675,56.2886735 32.3487841,55.8848504 32.4381988,55.4674819 L33.2235871,52.5674163 C33.3012629,52.2863527 33.2235871,52.1841477 32.9646679,52.1841477 L31.1738099,52.1841477 C30.8976294,52.1841477 30.7854311,52.2863527 30.7077553,52.5674163 L29.9396283,55.4674819 C29.8172996,55.8567524 29.7504899,56.2609357 29.7411235,56.6683902 L27.4065352,56.6683902 C27.6011753,56.2876702 27.7461729,55.8841572 27.8380672,55.4674819 L29.1326634,50.6212636 C29.2572096,50.2325114 29.3240712,49.8280138 29.3311681,49.4203553 L31.5492428,49.4203553 L30.9278367,51.7412596 Z" id="Path"></path>
                    <path d="M37.9272864,54.5093105 L37.6726825,55.4632234 C37.599322,55.744287 37.6726825,55.846492 37.9316017,55.846492 L41.5823628,55.846492 C41.8111966,55.8431314 42.0393125,55.820335 42.2641834,55.7783554 L41.8326513,56.6854244 L36.6758435,56.6854244 C35.7092117,56.6854244 35.3812473,56.2595704 35.6315359,55.2588135 L36.2831493,52.7888604 C36.5463838,51.8051376 37.1203215,51.3622495 38.0869532,51.3622495 L42.0138948,51.3622495 C42.9762113,51.3622495 43.3084909,51.7881035 43.0582023,52.7888604 L42.6007784,54.4922763 L37.9272864,54.5093105 Z M40.7279293,53.6576025 L41.0127405,52.5674163 C41.0904162,52.2863527 41.0127405,52.1841477 40.7538212,52.1841477 L38.8982335,52.1841477 C38.622053,52.1841477 38.5098546,52.2863527 38.4364942,52.5674163 L38.1473677,53.6576025 L40.7279293,53.6576025 Z" id="Shape"></path>
                    <path d="M49.9109312,55.6931846 C49.8158625,56.0092433 49.7778841,56.3393437 49.7987328,56.6683902 L47.2440631,56.6683902 C47.4287443,56.3655703 47.5655313,56.0367187 47.6497033,55.6931846 L49.0521824,50.3955609 C49.1496427,50.0799871 49.1876704,49.7494584 49.1643807,49.4203553 L55.0245858,49.4203553 C56.2760288,49.4203553 56.750714,49.8717605 56.4831641,50.9023272 L56.0300555,52.6057431 C55.753875,53.6363098 55.0332165,54.087715 53.7817736,54.087715 L50.3295172,54.087715 L49.9109312,55.6931846 Z M50.5798058,53.180646 L53.0999529,53.180646 C53.5660075,53.180646 53.7213591,53.0571484 53.8637647,52.5248309 L54.2607741,51.0173078 C54.4031797,50.4849903 54.3168733,50.348717 53.8292421,50.348717 L51.3479329,50.348717 L50.5798058,53.180646 Z" id="Shape"></path>
                    <path d="M57.2858137,56.6683902 C56.319182,56.6683902 55.9912176,56.2425362 56.2415062,55.2417793 L56.8974349,52.7718262 C57.1563541,51.7881035 57.7302917,51.3452153 58.6969235,51.3452153 L62.6238651,51.3452153 C63.5861815,51.3452153 63.9184612,51.7710693 63.6681726,52.7718262 L63.0122439,55.2417793 C62.7533247,56.225502 62.1750718,56.6683902 61.2127553,56.6683902 L57.2858137,56.6683902 Z M60.3971598,55.8166822 C60.6776556,55.8166822 60.7855386,55.7144773 60.8632144,55.4334136 L61.6270261,52.5546407 C61.7003865,52.273577 61.6270261,52.1713721 61.3637915,52.1713721 L59.5082038,52.1713721 C59.2320232,52.1713721 59.1198249,52.273577 59.0464645,52.5546407 L58.2826528,55.4334136 C58.2092923,55.7144773 58.2826528,55.8166822 58.541572,55.8166822 L60.3971598,55.8166822 Z" id="Shape"></path>
                    <path d="M70.218829,55.4802576 C70.0088168,56.272346 69.4219332,56.6683902 68.4581783,56.6683902 L63.6379654,56.6683902 L63.7242718,55.7528041 C64.1595316,55.8703526 64.6122206,55.9121437 65.0620211,55.8763018 L67.6166908,55.8763018 C67.8590258,55.900992 68.0851329,55.7528323 68.1561059,55.522843 L68.2337816,55.2290037 C68.2941961,55.0160767 68.1604212,54.8798034 67.8842407,54.8798034 L65.221688,54.8798034 C64.3586239,54.8798034 64.0522361,54.4156226 64.3154707,53.4276413 L64.4837682,52.7846018 C64.7470027,51.7966206 65.2907331,51.3452153 66.1581125,51.3452153 L71.1552535,51.3452153 L71.0689471,52.26506 C70.6339425,52.1460793 70.1812492,52.1028467 69.7311978,52.1373038 L67.0772758,52.1373038 C66.8659682,52.1183122 66.6720228,52.2537321 66.6198518,52.4566943 L66.555122,52.7036896 C66.4990228,52.9208751 66.5939599,53.0230801 66.8442485,53.0230801 L69.4334407,53.0230801 C70.3971956,53.0230801 70.7740669,53.4191243 70.5640547,54.2112127 L70.218829,55.4802576 Z" id="Path"></path>
                    <path d="M74.555726,51.3452153 L73.46395,55.4674819 C73.3416213,55.8567524 73.2748116,56.2609357 73.2654452,56.6683902 L70.9265416,56.6683902 C71.1235498,56.2886735 71.2686589,55.8848504 71.3580736,55.4674819 L72.1348313,52.5461236 C72.2589975,52.15741 72.3244304,51.7527591 72.3290207,51.3452153 L74.555726,51.3452153 Z M74.9872581,49.5566286 L74.6506631,50.8341906 L72.6267778,50.8341906 L72.9633728,49.5566286 L74.9872581,49.5566286 Z" id="Shape"></path>
                    <path d="M80.359832,52.1373038 L78.3230008,52.1373038 L77.4901439,55.2886233 C77.3736303,55.7144773 77.4901439,55.8294578 77.8612615,55.8294578 L78.7243256,55.8294578 C79.1325451,55.8496009 79.5414838,55.8079526 79.9369306,55.7059602 L79.5053985,56.6683902 L76.4199445,56.6683902 C75.5568804,56.6683902 75.1728169,56.2042093 75.4489974,55.1608671 L76.2473316,52.1373038 L75.1512402,52.1373038 L75.362691,51.3452153 L76.4587823,51.3452153 L76.7479088,50.2592877 L78.905569,49.9995167 L78.5473974,51.3452153 L80.5842286,51.3452153 L80.359832,52.1373038 Z" id="Path"></path>
                    <path d="M84.0408003,51.3452153 L82.9490242,55.4674819 C82.8266955,55.8567524 82.7598859,56.2609357 82.7505195,56.6683902 L80.4159312,56.6683902 C80.6105713,56.2876702 80.7555689,55.8841572 80.8474632,55.4674819 L81.6242209,52.5461236 C81.7468244,52.156917 81.8136404,51.7526955 81.8227256,51.3452153 L84.0408003,51.3452153 Z M84.4723323,49.5566286 L84.1357373,50.8341906 L82.1118521,50.8341906 L82.4484471,49.5566286 L84.4723323,49.5566286 Z" id="Shape"></path>
                    <path d="M86.0776315,56.6683902 L85.6460995,54.9649742 C85.3138198,53.5852073 84.8218733,51.4900057 84.6190532,51.3409568 L87.2082455,51.3409568 C87.2082455,51.3750251 87.1737229,51.4218691 87.1521463,51.4985228 C87.0701552,51.8179133 87.2470834,52.2480258 88.0411023,55.5994967 C89.8103837,53.2445241 91.0618266,51.7668108 91.0877185,51.524074 C91.1018235,51.4639114 91.1104881,51.4026317 91.1136105,51.3409568 L92.4082066,51.3409568 C92.0459431,51.6521186 91.7280373,52.0102496 91.4631514,52.4055918 L88.1791926,56.6641317 L86.0776315,56.6683902 Z" id="Path"></path>
                    <path d="M93.93583,54.5093105 L93.6812261,55.4632234 C93.6078657,55.744287 93.6812261,55.846492 93.9401453,55.846492 L97.5909064,55.846492 C97.8197402,55.8431314 98.0478561,55.820335 98.272727,55.7783554 L97.841195,56.6854244 L92.6628105,56.6854244 C91.6961787,56.6854244 91.3682144,56.2595704 91.6185029,55.2588135 L92.2744316,52.7888604 C92.5333509,51.8051376 93.1072885,51.3622495 94.0739203,51.3622495 L98.0008618,51.3622495 C98.9631783,51.3622495 99.295458,51.7881035 99.0451694,52.7888604 L98.5877454,54.4922763 L93.93583,54.5093105 Z M96.736473,53.6576025 L97.0255994,52.5674163 C97.0989599,52.2863527 97.0255994,52.1841477 96.7623649,52.1841477 L94.9067771,52.1841477 C94.6305966,52.1841477 94.5183983,52.2863527 94.4450378,52.5674163 L94.1559113,53.6576025 L96.736473,53.6576025 Z" id="Shape"></path>
                    <path d="M108.582027,56.6683902 L106.182709,50.8001222 L106.182709,50.8001222 L104.888113,55.6931846 C104.793045,56.0092433 104.755066,56.3393437 104.775915,56.6683902 L103.446796,56.6683902 C103.633292,56.3664734 103.770199,56.0373343 103.852436,55.6931846 L105.254915,50.3955609 C105.353737,50.0802336 105.393226,49.7497169 105.371429,49.4203553 L108.202279,49.4203553 L110.558444,55.1736427 L110.580021,55.1736427 L111.848725,50.3955609 C111.94406,50.0795557 111.982044,49.7494085 111.960923,49.4203553 L113.285727,49.4203553 C113.103028,49.7236631 112.967732,50.0524293 112.884402,50.3955609 L111.223004,56.6683902 L108.582027,56.6683902 Z" id="Path"></path>
                    <path d="M117.186776,56.6683902 L117.281713,56.1232971 L117.260137,56.1232971 C117.001218,56.5491511 116.828605,56.6683902 116.461803,56.6683902 L113.87261,56.6683902 C112.905979,56.6683902 112.578014,56.2425362 112.828303,55.2417793 L113.544646,52.5461236 C113.668812,52.15741 113.734245,51.7527591 113.738835,51.3452153 L115.95691,51.3452153 L114.869449,55.4461892 C114.796089,55.7272529 114.869449,55.8294578 115.128369,55.8294578 L116.940803,55.8294578 C117.216984,55.8294578 117.329182,55.7272529 117.402542,55.4461892 L118.170669,52.5461236 C118.295513,52.1574414 118.362381,51.7529007 118.369174,51.3452153 L120.587249,51.3452153 L119.495473,55.4674819 C119.370927,55.8562341 119.304065,56.2607317 119.296968,56.6683902 L117.186776,56.6683902 Z" id="Path"></path>
                    <path d="M126.197165,52.1373038 L124.160334,52.1373038 L123.327477,55.2886233 C123.210964,55.7144773 123.327477,55.8294578 123.698595,55.8294578 L124.561659,55.8294578 C124.969879,55.8496009 125.378817,55.8079526 125.774264,55.7059602 L125.342732,56.6683902 L122.257278,56.6683902 C121.41579,56.6683902 121.01015,56.2042093 121.286331,55.1608671 L122.084665,52.1373038 L120.988574,52.1373038 L121.200024,51.3452153 L122.296116,51.3452153 L122.55072,50.2507706 L124.70838,49.9909997 L124.350208,51.3366983 L126.38704,51.3366983 L126.197165,52.1373038 Z" id="Path"></path>
                    <path d="M132.044425,52.5248309 C131.581777,52.431559 131.109523,52.3929606 130.63763,52.4098503 L129.843611,52.4098503 C129.648831,52.3896825 129.467264,52.5097317 129.412079,52.6951725 L128.674159,55.4674819 C128.550298,55.8562665 128.484873,56.2608726 128.47997,56.6683902 L126.141066,56.6683902 C126.337657,56.288496 126.482746,55.8847286 126.572598,55.4674819 L127.349356,52.5461236 C127.471959,52.156917 127.538775,51.7526955 127.547861,51.3452153 L129.5588,51.3452153 L129.489755,51.9243768 L129.515647,51.9243768 C129.68826,51.4985228 129.994647,51.3452153 130.641945,51.3452153 L132.368074,51.3452153 L132.044425,52.5248309 Z" id="Path"></path>
                    <path d="M135.289546,51.3452153 L134.202085,55.4674819 C134.079756,55.8567524 134.012946,56.2609357 134.00358,56.6683902 L131.668992,56.6683902 C131.863632,56.2876702 132.008629,55.8841572 132.100524,55.4674819 L132.877281,52.5461236 C132.999885,52.156917 133.066701,51.7526955 133.075786,51.3452153 L135.289546,51.3452153 Z M135.721078,49.5566286 L135.384483,50.8341906 L133.360597,50.8341906 L133.697192,49.5566286 L135.721078,49.5566286 Z" id="Shape"></path>
                    <path d="M141.106597,52.1373038 L139.069766,52.1373038 L138.236909,55.2886233 C138.120396,55.7144773 138.236909,55.8294578 138.612342,55.8294578 L139.475406,55.8294578 C139.883626,55.8496009 140.292565,55.8079526 140.688011,55.7059602 L140.256479,56.6683902 L137.171025,56.6683902 C136.307961,56.6683902 135.923898,56.2042093 136.200078,55.1608671 L137.002728,52.1373038 L135.902321,52.1373038 L136.113772,51.3452153 L137.209863,51.3452153 L137.49899,50.2592877 L139.65665,49.9995167 L139.298478,51.3452153 L141.335309,51.3452153 L141.106597,52.1373038 Z" id="Path"></path>
                    <path d="M144.778935,51.3452153 L143.69579,55.4674819 C143.573461,55.8567524 143.506651,56.2609357 143.497285,56.6683902 L141.149751,56.6683902 C141.344391,56.2876702 141.489388,55.8841572 141.581283,55.4674819 L142.35804,52.5461236 C142.480644,52.156917 142.54746,51.7526955 142.556545,51.3452153 L144.778935,51.3452153 Z M145.210467,49.5566286 L144.873872,50.8341906 L142.849987,50.8341906 L143.186582,49.5566286 L145.210467,49.5566286 Z" id="Shape"></path>
                    <path d="M145.99154,56.6683902 C145.029224,56.6683902 144.696944,56.2425362 144.951548,55.2417793 L145.603161,52.7718262 C145.866396,51.7881035 146.440333,51.3452153 147.40265,51.3452153 L151.333907,51.3452153 C152.296223,51.3452153 152.628503,51.7710693 152.378214,52.7718262 L151.722286,55.2417793 C151.459051,56.225502 150.885113,56.6683902 149.922797,56.6683902 L145.99154,56.6683902 Z M149.107201,55.8166822 C149.383382,55.8166822 149.49558,55.7144773 149.573256,55.4334136 L150.332752,52.5546407 C150.410428,52.273577 150.332752,52.1713721 150.073833,52.1713721 L148.218245,52.1713721 C147.942065,52.1713721 147.829867,52.273577 147.756506,52.5546407 L146.992694,55.4334136 C146.919334,55.7144773 146.992694,55.8166822 147.251614,55.8166822 L149.107201,55.8166822 Z" id="Shape"></path>
                    <path d="M155.778687,51.3452153 L155.68375,51.8903084 L155.68375,51.8903084 C155.942669,51.4644545 156.115282,51.3452153 156.477769,51.3452153 L159.066961,51.3452153 C160.029277,51.3452153 160.361557,51.7710693 160.111269,52.7718262 L159.394925,55.4674819 C159.271064,55.8562665 159.205639,56.2608726 159.200736,56.6683902 L156.861832,56.6683902 C157.058423,56.288496 157.203512,55.8847286 157.293364,55.4674819 L158.065807,52.5674163 C158.139167,52.2863527 158.065807,52.1841477 157.802572,52.1841477 L156.020345,52.1841477 C155.744164,52.1841477 155.631966,52.2863527 155.558605,52.5674163 L154.790478,55.4674819 C154.665932,55.8562341 154.599071,56.2607317 154.591974,56.6683902 L152.25307,56.6683902 C152.448141,56.287852 152.593158,55.8842837 152.684602,55.4674819 L153.457044,52.5461236 C153.581888,52.1574414 153.648756,51.7529007 153.655549,51.3452153 L155.778687,51.3452153 Z" id="Path"></path>
                    <path d="M166.169978,56.6683902 C165.168824,56.6683902 164.750238,56.2042093 165.017788,55.1949354 L166.157032,50.8938101 C166.322609,49.9857269 167.158133,49.3489249 168.090296,49.4203553 L172.573914,49.4203553 L172.474662,50.5190586 C172.10701,50.3887307 171.717019,50.330857 171.326786,50.348717 L169.000829,50.348717 C168.67718,50.348717 168.543405,50.450922 168.452783,50.774571 L167.253124,55.3056574 C167.166817,55.633565 167.253124,55.7315114 167.572458,55.7315114 L169.898415,55.7315114 C170.318026,55.7440231 170.73676,55.6864309 171.136912,55.5611698 L170.653596,56.6598731 L166.169978,56.6683902 Z" id="Path"></path>
                    <path d="M172.906194,56.6683902 C171.943877,56.6683902 171.611597,56.2425362 171.866201,55.2417793 L172.517815,52.7718262 C172.781049,51.7881035 173.354987,51.3452153 174.317303,51.3452153 L178.24856,51.3452153 C179.210877,51.3452153 179.543156,51.7710693 179.292868,52.7718262 L178.636939,55.2417793 C178.373705,56.225502 177.799767,56.6683902 176.83745,56.6683902 L172.906194,56.6683902 Z M176.021855,55.8166822 C176.298035,55.8166822 176.410234,55.7144773 176.483594,55.4334136 L177.247406,52.5546407 C177.325082,52.273577 177.247406,52.1713721 176.988487,52.1713721 L175.132899,52.1713721 C174.856718,52.1713721 174.74452,52.273577 174.67116,52.5546407 L173.903033,55.4461892 C173.825357,55.7272529 173.903033,55.8294578 174.161952,55.8294578 L176.021855,55.8166822 Z" id="Shape"></path>
                    <path d="M182.671764,51.3452153 L182.576827,51.8903084 L182.576827,51.8903084 C182.657923,51.720826 182.781133,51.5743336 182.934998,51.4644545 C183.064319,51.3852304 183.214377,51.3452153 183.36653,51.3494739 L186.26211,51.3494739 C186.848994,51.3494739 186.961192,51.4389032 186.982769,51.894567 L186.961192,51.894567 C187.250319,51.468713 187.440193,51.3494739 187.789734,51.3494739 L190.189052,51.3494739 C191.151368,51.3494739 191.483648,51.7753279 191.233359,52.7760847 L190.517016,55.4717405 C190.394687,55.861011 190.327878,56.2651942 190.318511,56.6726487 L187.983923,56.6726487 C188.178563,56.2919288 188.323561,55.8884157 188.415455,55.4717405 L189.183582,52.5716748 C189.261258,52.2906112 189.183582,52.1884062 188.924663,52.1884062 L187.323679,52.1884062 C187.047499,52.1884062 186.9353,52.2906112 186.857624,52.5716748 L186.089497,55.4717405 C185.965636,55.8605251 185.900211,56.2651312 185.895308,56.6726487 L183.556404,56.6726487 C183.752995,56.2927545 183.898084,55.8889871 183.987936,55.4717405 L184.760379,52.5716748 C184.833739,52.2906112 184.760379,52.1884062 184.497144,52.1884062 L182.89616,52.1884062 C182.61998,52.1884062 182.507781,52.2906112 182.434421,52.5716748 L181.666294,55.4717405 C181.541748,55.8604927 181.474886,56.2649903 181.467789,56.6726487 L179.128886,56.6726487 C179.323956,56.2921105 179.468974,55.8885422 179.560418,55.4717405 L180.33286,52.5503821 C180.455463,52.1611755 180.522279,51.756954 180.531365,51.3494739 L182.671764,51.3452153 Z" id="Path"></path>
                    <path d="M194.616571,51.8434645 L194.638147,51.8434645 C194.774711,51.557908 195.056886,51.3673814 195.376067,51.3452153 L197.999782,51.3452153 C198.966414,51.3452153 199.294378,51.7710693 199.044089,52.7718262 L198.392476,55.2417793 C198.129241,56.225502 197.555304,56.6683902 196.588672,56.6683902 L194.059894,56.6683902 C193.926811,56.6900836 193.791105,56.6491195 193.693092,56.5576682 C193.594728,56.4360879 193.537387,56.2871769 193.52911,56.1318142 L193.481641,56.1318142 L193.119154,57.4945469 C192.996551,57.8837535 192.929735,58.287975 192.92065,58.6954552 L190.732782,58.6954552 L192.359658,52.5546407 C192.482261,52.1654341 192.549077,51.7612125 192.558163,51.3537324 L194.651093,51.3537324 L194.616571,51.8434645 Z M194.888436,52.1841477 C194.60794,52.1841477 194.500057,52.2863527 194.422381,52.5674163 L193.662885,55.4461892 C193.585209,55.7272529 193.641308,55.8294578 193.921804,55.8294578 L195.777392,55.8294578 C196.053572,55.8294578 196.165771,55.7272529 196.239131,55.4461892 L197.002943,52.5674163 C197.076303,52.2863527 197.002943,52.1841477 196.744024,52.1841477 L194.888436,52.1841477 Z" id="Shape"></path>
                    <path d="M205.99607,55.4674819 C205.873742,55.8567524 205.806932,56.2609357 205.797566,56.6683902 L203.859987,56.6683902 L203.907455,56.11478 L203.907455,56.11478 C203.730279,56.4708536 203.355223,56.6885717 202.95377,56.6683902 L200.364577,56.6683902 C199.376369,56.6683902 199.044089,56.2851216 199.432468,54.8244424 C199.820847,53.3637632 200.351631,52.9762361 201.33984,52.9762361 L204.291519,52.9762361 C204.461294,53.0008183 204.622113,52.8937858 204.662636,52.7292408 L204.753258,52.3885576 C204.800727,52.2054404 204.710105,52.1373038 204.515916,52.1373038 L201.357101,52.1373038 C201.006863,52.1312035 200.657296,52.1698513 200.317109,52.2522843 L200.688226,51.3452153 L205.702629,51.3452153 C206.664945,51.3452153 206.997225,51.7710693 206.746936,52.7718262 L205.99607,55.4674819 Z M202.112282,53.8151685 C201.836102,53.8151685 201.723903,53.9173734 201.650543,54.1984371 L201.318263,55.4461892 C201.244903,55.7272529 201.318263,55.8294578 201.577182,55.8294578 L203.43277,55.8294578 C203.708951,55.8294578 203.821149,55.7272529 203.898825,55.4461892 L204.330357,53.8151685 L202.112282,53.8151685 Z" id="Shape"></path>
                    <path d="M210.09131,51.3452153 L209.996372,51.8903084 L210.017949,51.8903084 C210.276868,51.4644545 210.449481,51.3452153 210.816283,51.3452153 L213.405476,51.3452153 C214.372107,51.3452153 214.700072,51.7710693 214.449783,52.7718262 L213.73344,55.4674819 C213.609579,55.8562665 213.544153,56.2608726 213.539251,56.6683902 L211.187401,56.6683902 C211.383992,56.288496 211.529081,55.8847286 211.618933,55.4674819 L212.391375,52.5674163 C212.464736,52.2863527 212.391375,52.1841477 212.132456,52.1841477 L210.345913,52.1841477 C210.069733,52.1841477 209.957535,52.2863527 209.884174,52.5674163 L209.116047,55.4674819 C208.991501,55.8562341 208.924639,56.2607317 208.917542,56.6683902 L206.578639,56.6683902 C206.773709,56.287852 206.918727,55.8842837 207.010171,55.4674819 L207.782613,52.5461236 C207.907456,52.1574414 207.974325,51.7529007 207.981118,51.3452153 L210.09131,51.3452153 Z" id="Path"></path>
                    <path d="M214.303062,58.6869381 L214.415261,57.7202495 C214.821612,57.8190021 215.239821,57.8619923 215.658073,57.8480057 L218.350833,57.8480057 C218.726266,57.8480057 218.894563,57.7458008 219.011077,57.3029126 L219.330411,56.1020044 L219.330411,56.0807117 C219.243216,56.254738 219.119679,56.4085784 218.967924,56.5321169 C218.832592,56.6313905 218.665788,56.6797161 218.497554,56.6683902 L215.95583,56.6683902 C215.114343,56.6683902 214.721648,56.1914337 214.924468,55.4334136 L215.82637,52.0265817 C215.882063,51.8038868 215.898124,51.5733364 215.873839,51.3452153 L218.10486,51.3452153 L216.991507,55.5483942 C216.939723,55.7272529 217.047606,55.8294578 217.22885,55.8294578 L219.058545,55.8294578 C219.252097,55.8500984 219.433215,55.7321337 219.490077,55.5483942 L220.426502,52.0265817 C220.479982,51.8035504 220.496018,51.5733709 220.47397,51.3452153 L222.700676,51.3452153 L221.155791,57.179415 C220.879611,58.2184987 220.227997,58.6869381 219.382194,58.6869381 L214.303062,58.6869381 Z" id="Path"></path>
                </g>
            </g>
        </g>
    </g>
</svg>
